<svg xmlns="http://www.w3.org/2000/svg" viewBox="0 0 900 260" role="img" aria-label="EXPORT MCA LLC Soluciones Globales de Exportación y Logística"><defs><linearGradient id="b" x1="0" x2="1"><stop stop-color="#0b3d91"/><stop offset="1" stop-color="#1565c0"/></linearGradient></defs><rect width="900" height="260" fill="white"/><g transform="translate(28 28)"><path d="M150 8C86 8 34 60 34 124c0 26 9 50 24 69" fill="none" stroke="#0b3d91" stroke-width="12"/><path d="M33 124h178M150 10c-34 32-52 70-52 114s18 82 52 113M150 10c34 32 52 70 52 114" fill="none" stroke="#0b3d91" stroke-width="5" opacity=".75"/><path d="M26 118C40 48 91 4 162 0" fill="none" stroke="#f58220" stroke-width="10" stroke-linecap="round"/><path d="M50 174c68 22 126 14 177-18-13 30-37 50-72 62-46 15-92 7-140-24 12-1 23-6 35-20z" fill="url(#b)"/><path d="M85 135h95l42 27H70z" fill="#06204a"/><path d="M94 105h24v28H94zm31-16h24v44h-24zm31 11h24v33h-24z" fill="#0b3d91"/><path d="M103 109h12m17-14h12m19 12h12" stroke="#f58220" stroke-width="4"/><path d="M72 202c53 22 108 23 165-5-42 45-118 50-183 20z" fill="#1565c0"/><path d="M126 70l76-35 12 9-48 52-52 4z" fill="#06204a"/><path d="M183 49l26-23 17 2-26 29z" fill="#06204a"/><path d="M166 92l48 6 12 10-65-2z" fill="#06204a"/></g><g transform="translate(292 54)"><text x="0" y="90" font-family="Montserrat,Arial,sans-serif" font-size="76" font-weight="900" fill="#06204a" letter-spacing="1">EXPORT MCA</text><text x="650" y="90" font-family="Montserrat,Arial,sans-serif" font-size="42" font-weight="900" fill="#f58220">LLC</text><line x1="0" y1="118" x2="610" y2="118" stroke="#f58220" stroke-width="5"/><text x="0" y="166" font-family="Montserrat,Arial,sans-serif" font-size="25" fill="#06204a" letter-spacing="6">SOLUCIONES GLOBALES DE EXPORTACIÓN Y LOGÍSTICA</text></g></svg>